                                <svg width="204" height="204" viewBox="0 0 204 204" fill="none"
                                    xmlns="http://www.w3.org/2000/svg">
                                    <rect width="203.993" height="204" rx="101.997" fill="#252422" fill-opacity="0.9" />
                                    <path
                                        d="M103.317 87.9688L99.582 91.7035C94.0415 97.244 90.2015 104.248 88.5097 111.902L83.8896 132.81L112.609 104.091C120.105 96.5952 125.18 87.0133 127.179 76.5986L132.808 47.2214L103.43 52.8496C93.0157 54.8484 83.4426 59.9243 75.9383 67.4197L47.2188 96.1393L68.1184 91.5281C75.7717 89.8361 82.785 85.9964 88.3256 80.4558L92.069 76.7124C94.7953 73.986 98.2844 72.1363 102.072 71.4085L110.181 69.8569L108.629 77.9661C107.893 81.7532 106.043 85.2337 103.317 87.9688Z"
                                        fill="#FFFCF3" />
                                    <path
                                        d="M137.772 74.819L132.582 101.926C131.855 105.713 130.014 109.202 127.278 111.928L123.535 115.672C117.994 121.212 114.155 128.226 112.463 135.879L107.852 156.779L136.571 128.059C144.066 120.563 149.142 110.982 151.141 100.567L156.769 71.1897L137.772 74.819Z"
                                        fill="#FFFCF3" />
                                    <path
                                        d="M62.7678 107.861C58.3231 108.711 54.8515 112.192 53.9923 116.636L51.7656 128.27L63.3989 126.043C67.8437 125.192 71.3153 121.712 72.1744 117.267L74.4011 105.634L62.7678 107.861Z"
                                        fill="#FFFCF3" />
                                </svg>